<?xml version="1.0" standalone="no"?>
<!DOCTYPE svg PUBLIC "-//W3C//DTD SVG 20010904//EN"
 "http://www.w3.org/TR/2001/REC-SVG-20010904/DTD/svg10.dtd">
<svg version="1.0" xmlns="http://www.w3.org/2000/svg"
 width="256.000000pt" height="202.000000pt" viewBox="0 0 256.000000 202.000000"
 preserveAspectRatio="xMidYMid meet">

<g transform="translate(0.000000,202.000000) scale(0.100000,-0.100000)"
fill="#000000" stroke="none">
<path d="M26 2012 c-3 -3 -6 -14 -6 -24 0 -16 6 -19 37 -16 20 2 38 8 40 14 4
11 -62 36 -71 26z"/>
<path d="M330 1982 l-85 -28 1 -35 c1 -18 5 -70 9 -114 7 -70 12 -85 42 -119
28 -34 33 -47 33 -91 0 -63 23 -98 76 -115 51 -17 129 -8 166 20 29 21 33 22
57 7 14 -8 34 -26 45 -40 23 -31 9 -64 -32 -72 -74 -15 -113 -47 -188 -152
-89 -127 -105 -180 -79 -271 34 -116 101 -206 163 -218 28 -6 37 -2 65 28 18
19 39 54 45 76 15 48 24 56 49 43 121 -65 192 -78 330 -63 150 17 188 4 235
-79 43 -76 160 -109 213 -59 34 31 112 193 121 249 4 25 1 73 -7 114 l-13 70
56 106 c66 125 90 196 86 248 -2 30 -7 39 -25 41 -19 3 -23 -4 -33 -52 -14
-70 -60 -162 -102 -205 -31 -31 -34 -32 -92 -27 -34 3 -164 9 -291 15 -235 9
-305 20 -383 60 -61 31 -62 33 -50 161 5 63 8 169 6 235 -4 137 -20 180 -85
234 -81 67 -193 78 -333 33z"/>
<path d="M10 1782 c0 -10 61 -33 71 -26 5 3 9 0 9 -5 0 -13 97 -15 105 -2 6
11 -100 35 -121 27 -8 -3 -14 -1 -14 4 0 6 -11 10 -25 10 -14 0 -25 -4 -25 -8z"/>
<path d="M100 1340 c0 -5 5 -10 11 -10 5 0 7 5 4 10 -3 6 -8 10 -11 10 -2 0
-4 -4 -4 -10z"/>
<path d="M125 1228 c-2 -7 0 -29 4 -48 l9 -35 1 48 c1 45 -5 60 -14 35z"/>
<path d="M124 1025 c0 -55 1 -76 3 -47 2 29 2 74 0 100 -2 26 -3 2 -3 -53z"/>
<path d="M111 834 c0 -11 3 -14 6 -6 3 7 2 16 -1 19 -3 4 -6 -2 -5 -13z"/>
<path d="M90 790 c0 -5 5 -10 10 -10 6 0 10 5 10 10 0 6 -4 10 -10 10 -5 0
-10 -4 -10 -10z"/>
<path d="M410 454 c0 -10 42 -52 70 -70 9 -5 7 -1 -5 9 -11 10 -30 30 -42 45
-13 15 -23 22 -23 16z"/>
<path d="M945 350 c-7 -12 29 -12 65 0 21 7 19 8 -17 9 -23 1 -45 -3 -48 -9z"/>
<path d="M1050 340 c-13 -8 -12 -10 3 -10 9 0 17 5 17 10 0 12 -1 12 -20 0z"/>
</g>
</svg>
